<svg width="245" height="245" viewBox="0 0 245 245" fill="none" xmlns="http://www.w3.org/2000/svg">
    <path d="M208.229 60.8915L158.365 97.4541C149.267 104.124 139.632 110.018 129.573 115.098C134.05 104.751 139.345 94.7746 145.463 85.2957L179.001 33.3505C186.422 21.8546 181.361 6.43945 168.569 1.57873C155.775 -3.28087 141.759 4.88561 139.675 18.4129L130.27 79.5247C128.553 90.6777 125.886 101.652 122.367 112.361C118.216 101.882 114.924 91.077 112.55 80.0516L99.5333 19.6048C96.6509 6.22669 82.1745 -1.09415 69.6897 4.51711C57.2074 10.1272 53.0715 25.8133 61.1625 36.8505L97.725 86.7144C104.395 95.812 110.288 105.445 115.367 115.504C105.022 111.029 95.0468 105.737 85.5667 99.6163L34.2993 66.5179C22.5517 58.9311 6.32279 63.818 1.66885 77.0027C-2.798 89.6621 5.33192 103.35 18.6839 105.405L79.7956 114.81C90.9487 116.526 101.922 119.191 112.631 122.712C102.153 126.863 91.3516 130.157 80.3226 132.53L20.6671 145.377C6.99594 148.322 -1.02492 163.251 5.00855 175.867C10.802 187.976 26.2259 191.902 37.1215 183.917L86.9854 147.354C96.083 140.684 105.716 134.791 115.775 129.712C111.299 140.055 106.008 150.033 99.8873 159.513L66.789 210.78C59.2046 222.527 64.089 238.757 77.2762 243.41C89.9331 247.877 103.621 239.748 105.676 226.396L115.081 165.284C116.797 154.131 119.462 143.158 122.983 132.448C127.134 142.927 130.428 153.728 132.801 164.757L145.647 224.41C148.589 238.082 163.523 246.107 176.137 240.068C188.247 234.278 192.176 218.853 184.188 207.958L147.625 158.094C140.955 148.996 135.061 139.361 129.982 129.302C140.326 133.78 150.304 139.071 159.784 145.192L211.729 178.73C223.227 186.15 238.64 181.09 243.501 168.298C248.358 155.505 240.191 141.489 226.668 139.406L165.555 129.999C154.403 128.279 143.428 125.615 132.719 122.097C143.198 117.945 154 114.654 165.028 112.278L225.475 99.2623C238.853 96.3799 246.174 81.9035 240.564 69.4212L240.562 69.4187C234.952 56.9364 219.266 52.8005 208.229 60.8915Z" fill="white" style="mix-blend-mode: difference;" />
</svg>
