<svg width="300" height="300" viewBox="0 0 300 300" fill="none" xmlns="http://www.w3.org/2000/svg">
<rect width="300" height="300" fill=""/>
<path d="M150.138 103.391C137.694 103.391 127.573 113.515 127.573 125.956C127.573 138.4 137.694 148.524 150.138 148.524C162.582 148.524 172.706 138.4 172.706 125.956C172.706 113.515 162.582 103.391 150.138 103.391ZM150.138 151.196C136.222 151.196 124.901 139.875 124.901 125.956C124.901 112.041 136.222 100.719 150.138 100.719C164.054 100.719 175.375 112.041 175.375 125.956C175.375 139.875 164.054 151.196 150.138 151.196Z" fill="black"/>
<path d="M150.138 151.195C137.694 151.195 127.573 161.319 127.573 173.763C127.573 186.204 137.694 196.328 150.138 196.328C162.582 196.328 172.706 186.204 172.706 173.763C172.706 161.319 162.582 151.195 150.138 151.195ZM150.138 199C136.222 199 124.901 187.679 124.901 173.763C124.901 159.847 136.222 148.523 150.138 148.523C164.054 148.523 175.375 159.847 175.375 173.763C175.375 187.679 164.054 199 150.138 199Z" fill="black"/>
<path d="M174.041 127.293C161.597 127.293 151.476 137.417 151.476 149.861C151.476 162.302 161.597 172.426 174.041 172.426C186.485 172.426 196.609 162.302 196.609 149.861C196.609 137.417 186.485 127.293 174.041 127.293ZM174.041 175.098C160.125 175.098 148.804 163.776 148.804 149.861C148.804 135.942 160.125 124.621 174.041 124.621C187.957 124.621 199.278 135.942 199.278 149.861C199.278 163.776 187.957 175.098 174.041 175.098Z" fill="#05B6E5"/>
<path d="M126.237 127.293C113.793 127.293 103.669 137.417 103.669 149.861C103.669 162.302 113.793 172.426 126.237 172.426C138.681 172.426 148.802 162.302 148.802 149.861C148.802 137.417 138.681 127.293 126.237 127.293ZM126.237 175.098C112.321 175.098 101 163.776 101 149.861C101 135.942 112.321 124.621 126.237 124.621C140.153 124.621 151.474 135.942 151.474 149.861C151.474 163.776 140.153 175.098 126.237 175.098Z" fill="black"/>
</svg>
