<svg width="300" height="300" viewBox="0 0 300 300" fill="none" xmlns="http://www.w3.org/2000/svg">
<rect width="300" height="300" fill=""/>
<path d="M182.499 169.739C182.319 169.561 181.965 169.561 181.608 169.561C180.542 169.561 179.653 170.272 179.296 171.162L170.933 194.828L100.649 169.739L110.615 143.583C111.148 142.337 110.436 140.914 109.19 140.38C108.836 140.201 108.656 140.201 108.301 140.201C107.233 140.201 106.344 140.914 105.987 141.804L95.1337 170.272C94.9554 170.807 94.9554 171.518 95.1337 172.229C95.4884 172.764 95.8449 173.297 96.5579 173.475L171.467 200.165C171.646 200.343 172 200.343 172.357 200.343C173.423 200.343 174.312 199.632 174.669 198.742L183.924 172.942C184.1 172.408 184.1 171.696 183.744 170.983C183.565 170.449 183.211 169.917 182.499 169.739Z" fill="black"/>
<path d="M201.36 122.052C201.004 121.519 200.647 120.986 199.936 120.808L125.028 94.1185C124.494 93.9385 123.781 93.9385 123.069 94.295C122.535 94.6515 122.002 95.0062 121.823 95.7192L112.751 121.341C112.572 121.876 112.572 122.587 112.927 123.298C113.283 123.831 113.638 124.366 114.351 124.544C114.528 124.722 114.884 124.722 115.241 124.722C116.308 124.722 117.198 124.009 117.553 123.12L125.916 99.4553L196.2 124.544L187.48 148.565C187.304 149.098 187.304 149.811 187.66 150.522C188.015 151.055 188.371 151.59 189.083 151.768C189.261 151.946 189.616 151.946 189.972 151.946C191.04 151.946 191.929 151.233 192.286 150.344L201.717 124.009C201.717 123.298 201.717 122.587 201.36 122.052Z" fill="black"/>
<path d="M105.987 133.44L119.867 138.779C120.222 138.955 120.399 138.955 120.757 138.955C121.823 138.955 122.712 138.244 123.069 137.355C123.603 136.109 122.892 134.686 121.646 134.152L107.766 128.815C107.411 128.637 107.233 128.637 106.877 128.637C105.811 128.637 104.919 129.348 104.565 130.237C104.03 131.661 104.741 133.084 105.987 133.44Z" fill="black"/>
<path d="M143.175 147.497C143.532 147.676 143.708 147.676 144.065 147.676C145.132 147.676 146.022 146.963 146.378 146.073C146.911 144.827 146.2 143.405 144.956 142.872L131.075 137.533C130.719 137.355 130.542 137.355 130.186 137.355C129.118 137.355 128.229 138.066 127.872 138.956C127.339 140.201 128.051 141.626 129.295 142.159L143.175 147.497Z" fill="black"/>
<path d="M152.428 151.055L166.307 156.394C166.661 156.572 166.84 156.572 167.196 156.572C168.264 156.572 169.153 155.859 169.51 154.97C169.686 154.437 169.686 153.724 169.51 153.012C169.153 152.479 168.797 151.946 168.086 151.768L154.207 146.43C153.852 146.251 153.674 146.251 153.318 146.251C152.25 146.251 151.359 146.963 151.004 147.854C150.827 148.387 150.827 149.098 151.004 149.811C151.359 150.344 151.893 150.7 152.428 151.055Z" fill="black"/>
<path d="M191.395 160.486L177.517 155.148C177.16 154.969 176.982 154.969 176.628 154.969C175.558 154.969 174.669 155.682 174.312 156.572C174.136 157.105 174.136 157.818 174.312 158.529C174.669 159.062 175.025 159.597 175.736 159.775L189.615 165.112C189.971 165.29 190.15 165.29 190.504 165.29C191.574 165.29 192.461 164.579 192.82 163.688C192.996 163.157 192.996 162.444 192.82 161.732C192.64 161.021 192.107 160.665 191.395 160.486Z" fill="black"/>
</svg>
