<svg width="300" height="300" viewBox="0 0 300 300" fill="none" xmlns="http://www.w3.org/2000/svg">
<rect width="300" height="300" fill=""/>
<path d="M186.483 127.472H180.274C179.783 127.472 179.293 126.983 179.293 126.492C179.293 126.002 179.783 125.511 180.274 125.511H186.483C186.972 125.511 187.463 126.002 187.463 126.492C187.463 126.983 187.136 127.472 186.483 127.472ZM183.377 142.506C183.214 142.67 182.888 142.834 182.724 142.834C182.561 142.834 182.233 142.67 182.071 142.506L177.658 138.095C177.332 137.767 177.332 137.114 177.658 136.623C177.985 136.297 178.64 136.297 179.129 136.623L183.541 141.036C183.869 141.526 183.869 142.181 183.377 142.506ZM174.718 118.976C174.39 118.976 174.227 118.812 174.063 118.649C173.737 118.321 173.737 117.668 174.063 117.179L178.476 112.767C178.802 112.439 179.457 112.439 179.946 112.767C180.274 113.093 180.274 113.747 179.946 114.237L175.534 118.649C175.207 118.976 175.043 118.976 174.718 118.976ZM174.063 131.722L165.403 140.382C165.239 140.545 164.912 140.709 164.748 140.709C164.586 140.709 164.259 140.545 164.095 140.382L152.33 128.944C152.004 128.616 152.004 127.963 152.33 127.472L160.991 118.812C161.317 118.485 161.972 118.485 162.461 118.812L174.063 130.414C174.227 130.578 174.39 130.905 174.39 131.069C174.39 131.231 174.227 131.558 174.063 131.722ZM159.52 146.265L119.158 186.626C118.994 186.791 118.667 186.955 118.505 186.955C118.177 186.955 118.014 186.791 117.851 186.626L106.248 175.024C105.921 174.698 105.921 174.045 106.248 173.554L146.611 133.192C146.938 132.866 147.591 132.866 148.082 133.192L159.683 144.793C160.011 145.121 160.011 145.774 159.52 146.265ZM150.205 109.334C150.532 109.007 151.186 109.007 151.677 109.334L156.088 113.747C156.416 114.073 156.416 114.726 156.088 115.217C155.925 115.38 155.597 115.545 155.435 115.545C155.272 115.545 154.944 115.38 154.782 115.217L150.369 110.806C149.879 110.478 149.879 109.825 150.205 109.334ZM165.239 106.229C165.239 105.739 165.729 105.248 166.22 105.248C166.709 105.248 167.2 105.739 167.2 106.229V112.439C167.2 112.929 166.709 113.42 166.22 113.42C165.729 113.42 165.239 112.929 165.239 112.439V106.229ZM102 101V193H194V101H102Z" fill="black"/>
</svg>
