<svg width="300" height="300" viewBox="0 0 300 300" fill="none" xmlns="http://www.w3.org/2000/svg">
<rect width="300" height="300" fill=""/>
<path fill-rule="evenodd" clip-rule="evenodd" d="M134.143 91.7187C134.677 91.5066 135.312 92.4646 135.632 93.7371C136.054 95.0114 135.844 96.176 135.42 96.2839C134.89 96.3936 134.251 95.5416 133.932 94.2673C133.614 92.9948 133.72 91.8247 134.143 91.7187ZM108.467 106.482C108.889 106.162 109.95 106.59 110.799 107.542C111.757 108.497 112.29 109.563 111.861 109.879C111.545 110.201 110.48 109.775 109.526 108.82C108.677 107.862 108.149 106.904 108.467 106.482ZM93.7171 132.187C93.8213 131.654 94.9921 131.547 96.2634 131.969C97.5365 132.288 98.4918 132.93 98.2781 133.458C98.1722 133.882 97.1128 133.99 95.7337 133.672C94.4587 133.353 93.6112 132.718 93.7171 132.187ZM93.7171 161.818C93.6112 161.394 94.4587 160.65 95.7337 160.33C97.1128 160.008 98.1722 160.118 98.2781 160.542C98.4918 161.072 97.5365 161.71 96.2634 162.134C94.9921 162.452 93.8213 162.349 93.7171 161.818ZM108.467 187.518C108.149 187.198 108.677 186.138 109.526 185.181C110.48 184.227 111.545 183.799 111.861 184.123C112.29 184.441 111.757 185.503 110.799 186.456C109.95 187.412 108.889 187.84 108.467 187.518ZM134.143 202.281C133.72 202.177 133.614 201.007 133.932 199.731C134.251 198.458 134.89 197.61 135.42 197.714C135.844 197.821 136.054 198.99 135.632 200.264C135.312 201.539 134.677 202.493 134.143 202.281ZM163.751 202.281C163.329 202.493 162.583 201.539 162.262 200.264C161.944 198.99 162.05 197.821 162.583 197.714C163.007 197.61 163.751 198.458 164.068 199.731C164.386 201.007 164.282 202.177 163.751 202.281ZM189.427 187.518C189.109 187.84 188.05 187.412 187.098 186.456C186.141 185.503 185.714 184.441 186.033 184.123C186.455 183.799 187.416 184.227 188.37 185.181C189.321 186.138 189.747 187.198 189.427 187.518ZM204.285 161.818C204.075 162.349 203.013 162.452 201.737 162.134C200.465 161.71 199.51 161.072 199.616 160.542C199.722 160.118 200.889 160.008 202.16 160.33C203.437 160.65 204.391 161.394 204.285 161.818ZM204.285 132.187C204.391 132.718 203.437 133.353 202.16 133.672C200.889 133.99 199.722 133.882 199.616 133.458C199.51 132.93 200.465 132.288 201.737 131.969C203.013 131.547 204.075 131.654 204.285 132.187ZM189.427 106.482C189.747 106.904 189.321 107.862 188.37 108.82C187.416 109.775 186.455 110.201 186.033 109.879C185.714 109.563 186.141 108.497 187.098 107.542C188.05 106.59 189.109 106.162 189.427 106.482ZM163.751 91.7187C164.282 91.8247 164.386 92.9948 164.068 94.2673C163.751 95.5416 163.007 96.3936 162.583 96.2839C162.05 96.176 161.944 95.0114 162.262 93.7371C162.686 92.4646 163.329 91.5066 163.751 91.7187ZM119.501 95.8579C120.247 95.4355 121.73 96.708 122.899 98.7283C124.066 100.639 124.384 102.659 123.64 103.083C122.899 103.507 121.304 102.235 120.247 100.215C119.074 98.3023 118.762 96.2839 119.501 95.8579ZM97.9603 117.528C98.3841 116.786 100.297 117.104 102.311 118.165C104.224 119.331 105.493 120.927 105.069 121.671C104.646 122.413 102.735 122.095 100.722 120.927C98.7019 119.757 97.4306 118.272 97.9603 117.528ZM90 147.051C90 146.097 91.9143 145.461 94.1409 145.461C96.4771 145.461 98.2781 146.097 98.2781 147.051C98.2781 147.907 96.4771 148.543 94.1409 148.543C91.9143 148.543 90 147.907 90 147.051ZM97.9603 176.473C97.4306 175.729 98.7019 174.243 100.722 173.077C102.735 171.906 104.646 171.586 105.069 172.334C105.493 173.077 104.224 174.669 102.311 175.837C100.297 177.003 98.3841 177.323 97.9603 176.473ZM119.501 198.14C118.762 197.714 119.074 195.7 120.247 193.786C121.304 191.769 122.899 190.491 123.64 190.919C124.384 191.343 124.066 193.359 122.899 195.27C121.73 197.292 120.247 198.564 119.501 198.14ZM148.999 206C148.152 206 147.412 204.194 147.412 201.857C147.412 199.628 148.152 197.714 148.999 197.714C149.848 197.714 150.596 199.628 150.596 201.857C150.596 204.194 149.848 206 148.999 206ZM178.502 198.14C177.755 198.564 176.164 197.292 175.001 195.27C173.938 193.359 173.618 191.343 174.363 190.919C175.105 190.491 176.592 191.769 177.755 193.786C178.926 195.7 179.246 197.714 178.502 198.14ZM200.041 176.473C199.616 177.323 197.705 177.003 195.691 175.837C193.672 174.669 192.401 173.077 192.825 172.334C193.354 171.586 195.267 171.906 197.28 173.077C199.194 174.243 200.465 175.729 200.041 176.473ZM208 147.051C208 147.907 206.088 148.543 203.757 148.543C201.525 148.543 199.616 147.907 199.616 147.051C199.616 146.097 201.525 145.461 203.757 145.461C206.088 145.461 208 146.097 208 147.051ZM200.041 117.528C200.465 118.272 199.194 119.757 197.28 120.927C195.267 122.095 193.354 122.413 192.825 121.671C192.401 120.927 193.672 119.331 195.691 118.165C197.705 117.104 199.616 116.786 200.041 117.528ZM178.502 95.8579C179.246 96.2839 178.926 98.3023 177.755 100.215C176.592 102.235 175.105 103.507 174.363 103.083C173.618 102.659 173.938 100.639 175.001 98.7283C176.164 96.708 177.755 95.4355 178.502 95.8579ZM148.999 88C149.848 88 150.596 89.8081 150.596 92.141C150.596 94.3752 149.848 96.2839 148.999 96.2839C148.152 96.2839 147.412 94.3752 147.412 92.141C147.412 89.8081 148.152 88 148.999 88ZM142.104 163.623H130.536L147.518 183.483L142.104 163.623ZM148.999 186.244L154.945 163.623H148.999H143.059L148.999 186.244ZM150.378 183.483L167.464 163.623H155.9L150.378 183.483ZM142.104 130.273H130.536L147.518 110.307L142.104 130.273ZM148.999 107.65L154.945 130.273H143.059L148.999 107.65ZM150.378 110.307L167.464 130.273H155.9L150.378 110.307ZM130.218 130.91H142.104V163.091H130.218V130.91ZM143.059 130.91H154.945V163.091H143.059V130.91ZM155.9 130.91H167.782V163.091H155.9V130.91Z" fill="black"/>
</svg>
