<svg width="300" height="300" viewBox="0 0 300 300" fill="none" xmlns="http://www.w3.org/2000/svg">
<rect width="300" height="300" fill=""/>
<path d="M179.599 139.605C179.599 158.64 165.817 172.003 148.815 172.003C131.815 172.003 118.032 158.64 118.032 139.605C118.032 120.573 131.815 103.078 148.815 103.078C165.817 103.078 179.599 120.573 179.599 139.605Z" stroke="black" stroke-width="2.66667" stroke-miterlimit="10" stroke-linecap="round" stroke-linejoin="round"/>
<path d="M131.979 173.194C131.979 177.842 135.748 181.611 140.394 181.611H161.756C163.945 181.611 165.721 183.385 165.721 185.576V185.614C165.721 187.803 163.945 189.576 161.756 189.576H139.222C137.033 189.576 135.259 191.352 135.259 193.541V193.579C135.259 195.77 137.033 197.544 139.222 197.544H155.662C157.853 197.544 159.627 199.318 159.627 201.507C159.627 203.698 157.853 205.472 155.662 205.472H142.523" stroke="black" stroke-width="2.66667" stroke-miterlimit="10" stroke-linecap="round" stroke-linejoin="round"/>
<path d="M129.041 131.703C129.041 131.703 130.212 121.244 141.152 114.088" stroke="#05B6E5" stroke-width="2.66667" stroke-miterlimit="10" stroke-linecap="round" stroke-linejoin="round"/>
<path d="M101.518 111.334L111.426 115.876" stroke="#05B6E5" stroke-width="2.66667" stroke-miterlimit="10" stroke-linecap="round" stroke-linejoin="round"/>
<path d="M116.428 90.2891L122.937 99.0326" stroke="#05B6E5" stroke-width="2.66667" stroke-miterlimit="10" stroke-linecap="round" stroke-linejoin="round"/>
<path d="M180.74 90.2891L174.231 99.0326" stroke="#05B6E5" stroke-width="2.66667" stroke-miterlimit="10" stroke-linecap="round" stroke-linejoin="round"/>
<path d="M194 111.334L184.092 115.876" stroke="#05B6E5" stroke-width="2.66667" stroke-miterlimit="10" stroke-linecap="round" stroke-linejoin="round"/>
<path d="M148.849 91.1029V81.1948" stroke="#05B6E5" stroke-width="2.66667" stroke-miterlimit="10" stroke-linecap="round" stroke-linejoin="round"/>
</svg>
