<svg width="300" height="300" viewBox="0 0 300 300" fill="none" xmlns="http://www.w3.org/2000/svg">
<rect width="300" height="300" fill=""/>
<path d="M171.969 93.9494L155.935 97.7118L144.195 118.001L160.229 114.239L171.969 93.9494Z" fill="black"/>
<path d="M142.22 100.934L126.191 104.705L114.449 124.994L130.478 121.224L142.22 100.934Z" fill="black"/>
<path d="M112.705 107.874L101.961 110.396L104.642 121.878L112.705 107.874Z" fill="black"/>
<path d="M110.684 127.014C110.684 124.331 108.514 122.151 105.841 122.151C103.17 122.151 101 124.331 101 127.014C101 129.705 103.17 131.883 105.841 131.883C108.514 131.883 110.684 129.705 110.684 127.014Z" fill="black"/>
<path d="M105.841 144.249H105.814V201H195V144.249H194.976V127.394H191.693L181.948 144.249H169.29L179.046 127.394H165.187L155.439 144.249H142.06L151.815 127.394H137.965L128.209 144.249H116.48L126.233 127.394H112.377L105.841 138.689V144.249Z" fill="black"/>
<path d="M188.748 90L187.372 90.3287L175.63 110.618L191.658 106.848L192.388 105.589L188.748 90Z" fill="black"/>
</svg>
