<svg width="300" height="300" viewBox="0 0 300 300" fill="none" xmlns="http://www.w3.org/2000/svg">
<rect width="300" height="300" fill=""/>
<path fill-rule="evenodd" clip-rule="evenodd" d="M157.367 108.761C155.556 106.95 153.049 105.828 150.292 105.828C147.525 105.828 145.028 106.95 143.217 108.761C141.406 110.572 140.284 113.072 140.284 115.836C140.284 118.603 141.406 121.101 143.217 122.912C145.028 124.722 147.525 125.835 150.292 125.835C153.049 125.835 155.556 124.722 157.367 122.912C159.178 121.101 160.293 118.603 160.293 115.836C160.293 113.072 159.178 110.572 157.367 108.761ZM184.658 125.924C184.658 123.369 183.686 120.812 181.723 118.851C179.775 116.901 177.217 115.926 174.65 115.926C172.093 115.926 169.538 116.901 167.575 118.851C165.627 120.812 164.649 123.369 164.649 125.924C164.649 128.494 165.627 131.049 167.575 132.999C169.538 134.959 172.093 135.935 174.65 135.935C177.217 135.935 179.775 134.959 181.723 132.999C183.686 131.049 184.658 128.494 184.658 125.924ZM191.825 157.369C193.636 155.556 194.748 153.059 194.748 150.294C194.748 147.527 193.636 145.03 191.825 143.219C190.014 141.408 187.507 140.284 184.75 140.284C181.983 140.284 179.486 141.408 177.677 143.219C175.864 145.03 174.739 147.527 174.739 150.294C174.739 153.059 175.864 155.556 177.677 157.369C179.486 159.18 181.983 160.293 184.75 160.293C187.507 160.293 190.014 159.18 191.825 157.369ZM174.65 184.661C177.217 184.661 179.775 183.686 181.723 181.735C183.686 179.775 184.658 177.217 184.658 174.66C184.658 172.093 183.686 169.535 181.723 167.587C179.775 165.627 177.217 164.652 174.65 164.652C172.093 164.652 169.538 165.627 167.575 167.587C165.627 169.535 164.649 172.093 164.649 174.66C164.649 177.217 165.627 179.775 167.575 181.735C169.538 183.686 172.093 184.661 174.65 184.661ZM143.217 191.825C145.028 193.636 147.525 194.751 150.292 194.751C153.049 194.751 155.556 193.636 157.367 191.825C159.178 190.014 160.293 187.517 160.293 184.75C160.293 181.985 159.178 179.488 157.367 177.675C155.556 175.864 153.049 174.742 150.292 174.742C147.525 174.742 145.028 175.864 143.217 177.675C141.406 179.488 140.284 181.985 140.284 184.75C140.284 187.517 141.406 190.014 143.217 191.825ZM115.916 174.66C115.916 177.217 116.901 179.775 118.851 181.735C120.8 183.686 123.367 184.661 125.924 184.661C128.482 184.661 131.049 183.686 132.999 181.735C134.95 179.775 135.925 177.217 135.925 174.66C135.925 172.093 134.95 169.535 132.999 167.587C131.049 165.627 128.482 164.652 125.924 164.652C123.367 164.652 120.8 165.627 118.851 167.587C116.901 169.535 115.916 172.093 115.916 174.66ZM108.761 143.219C106.95 145.03 105.826 147.527 105.826 150.294C105.826 153.059 106.95 155.556 108.761 157.369C110.572 159.18 113.067 160.293 115.836 160.293C118.591 160.293 121.098 159.18 122.909 157.369C124.72 155.556 125.835 153.059 125.835 150.294C125.835 147.527 124.72 145.03 122.909 143.219C121.098 141.408 118.591 140.284 115.836 140.284C113.067 140.284 110.572 141.408 108.761 143.219ZM125.924 115.926C123.367 115.926 120.8 116.901 118.851 118.851C116.901 120.812 115.916 123.369 115.916 125.924C115.916 128.494 116.901 131.049 118.851 132.999C120.8 134.959 123.367 135.935 125.924 135.935C128.482 135.935 131.049 134.959 132.999 132.999C134.95 131.049 135.925 128.494 135.925 125.924C135.925 123.369 134.95 120.812 132.999 118.851C131.049 116.901 128.482 115.926 125.924 115.926ZM152.363 135.728C151.836 135.2 151.096 134.882 150.292 134.882C149.478 134.882 148.751 135.2 148.223 135.728L148.211 135.737C147.684 136.265 147.369 136.992 147.369 137.808C147.369 138.613 147.684 139.347 148.211 139.877H148.223C148.751 140.404 149.478 140.732 150.292 140.732C151.096 140.732 151.836 140.404 152.363 139.877C152.89 139.347 153.218 138.613 153.218 137.808C153.218 136.992 152.89 136.265 152.363 135.737V135.728ZM162.044 141.459C162.044 140.712 161.755 139.966 161.186 139.388C160.623 138.822 159.874 138.533 159.12 138.533C158.371 138.533 157.625 138.822 157.049 139.388C156.481 139.966 156.194 140.712 156.194 141.459C156.194 142.213 156.481 142.962 157.049 143.53C157.625 144.105 158.371 144.382 159.12 144.382C159.874 144.382 160.623 144.105 161.186 143.537V143.53C161.755 142.962 162.044 142.213 162.044 141.459ZM164.849 152.363C165.377 151.836 165.706 151.101 165.706 150.294C165.706 149.478 165.377 148.751 164.849 148.223C164.324 147.696 163.587 147.369 162.778 147.369C161.964 147.369 161.237 147.696 160.712 148.223H160.7C160.173 148.751 159.855 149.478 159.855 150.294C159.855 151.101 160.173 151.836 160.7 152.363H160.712C161.237 152.89 161.964 153.218 162.778 153.218C163.587 153.218 164.324 152.89 164.849 152.363ZM159.12 162.044C159.874 162.044 160.623 161.767 161.186 161.198C161.755 160.623 162.044 159.876 162.044 159.118C162.044 158.374 161.755 157.627 161.186 157.052C160.623 156.483 159.874 156.194 159.12 156.194C158.371 156.194 157.625 156.483 157.049 157.052C156.481 157.627 156.194 158.374 156.194 159.118C156.194 159.876 156.481 160.623 157.049 161.198V161.189C157.625 161.767 158.371 162.044 159.12 162.044ZM148.223 164.849C148.751 165.377 149.478 165.706 150.292 165.706C151.096 165.706 151.836 165.377 152.363 164.849C152.89 164.324 153.218 163.597 153.218 162.781C153.218 161.974 152.89 161.239 152.363 160.712C151.836 160.185 151.096 159.855 150.292 159.855C149.478 159.855 148.751 160.185 148.223 160.712H148.211C147.684 161.239 147.369 161.974 147.369 162.781C147.369 163.597 147.684 164.324 148.211 164.849H148.223ZM138.533 159.118C138.533 159.876 138.82 160.623 139.388 161.198V161.189C139.964 161.767 140.71 162.044 141.459 162.044C142.203 162.044 142.959 161.767 143.528 161.189V161.198C144.093 160.623 144.382 159.876 144.382 159.118C144.382 158.374 144.093 157.627 143.528 157.052C142.959 156.483 142.203 156.194 141.459 156.194C140.71 156.194 139.964 156.483 139.388 157.052C138.82 157.627 138.533 158.374 138.533 159.118ZM135.725 148.223C135.198 148.751 134.87 149.478 134.87 150.294C134.87 151.101 135.198 151.836 135.725 152.363H135.737C136.253 152.89 136.989 153.218 137.796 153.218C138.613 153.218 139.337 152.89 139.865 152.363H139.874C140.402 151.836 140.729 151.101 140.729 150.294C140.729 149.478 140.402 148.751 139.874 148.223H139.865C139.337 147.696 138.613 147.369 137.796 147.369C136.989 147.369 136.253 147.696 135.737 148.223H135.725ZM141.459 138.533C140.71 138.533 139.964 138.822 139.388 139.388C138.82 139.966 138.533 140.712 138.533 141.459C138.533 142.213 138.82 142.962 139.388 143.53C139.964 144.105 140.71 144.382 141.459 144.382C142.203 144.382 142.959 144.105 143.528 143.53C144.093 142.962 144.382 142.213 144.382 141.459C144.382 140.712 144.093 139.966 143.528 139.388C142.959 138.822 142.203 138.533 141.459 138.533ZM152.999 149.936C152.999 149.189 152.719 148.433 152.144 147.865C151.578 147.289 150.829 147.01 150.075 147.01C149.326 147.01 148.582 147.289 148.002 147.865C147.438 148.433 147.149 149.189 147.149 149.936C147.149 150.682 147.438 151.426 148.002 152.004C148.582 152.572 149.326 152.859 150.075 152.859C150.829 152.859 151.578 152.572 152.144 152.004C152.719 151.426 152.999 150.682 152.999 149.936ZM150.292 101C163.905 101 176.223 106.512 185.147 115.439C194.062 124.354 199.584 136.681 199.584 150.294C199.584 163.905 194.062 176.223 185.147 185.15C176.223 194.065 163.905 199.584 150.292 199.584C136.681 199.584 124.352 194.065 115.439 185.15C106.512 176.223 101 163.905 101 150.294C101 136.681 106.512 124.354 115.439 115.439C124.352 106.512 136.681 101 150.292 101Z" fill="black"/>
</svg>
