<svg width="300" height="300" viewBox="0 0 300 300" fill="none" xmlns="http://www.w3.org/2000/svg">
<rect width="300" height="300" fill=""/>
<path d="M130.388 129.387H168.522V167.523H130.388V129.387Z" fill="black"/>
<path d="M170.671 168.595C170.671 169.133 170.133 169.671 169.596 169.671H129.314C128.777 169.671 128.24 169.133 128.24 168.595V128.314C128.24 127.776 128.777 127.238 129.314 127.238H169.596C170.133 127.238 170.671 127.776 170.671 128.314V168.595ZM200.927 185.246H188.574V110.412C188.574 109.873 188.036 109.335 187.499 109.335H112.485V96.9817C112.485 96.4455 111.948 95.9092 111.411 95.9092C110.874 95.9092 110.336 96.4455 110.336 96.9817V109.335H97.9832C97.4457 109.335 96.9087 109.873 96.9087 110.412C96.9087 110.946 97.4457 111.484 97.9832 111.484H110.336V186.498C110.336 187.036 110.874 187.574 111.411 187.574H186.425V199.926C186.425 200.464 186.961 201 187.499 201C188.036 201 188.574 200.464 188.574 199.926V187.574H200.927C201.464 187.574 202.002 187.036 202.002 186.498C202.002 185.782 201.464 185.246 200.927 185.246Z" fill="black"/>
</svg>
