<svg width="300" height="300" viewBox="0 0 300 300" fill="none" xmlns="http://www.w3.org/2000/svg">
<rect width="300" height="300" fill=""/>
<path d="M163.79 151.282C163.79 143.635 157.603 137.515 149.868 137.515C142.13 137.515 135.942 143.635 135.942 151.282C135.942 158.929 142.13 165.046 149.868 165.046C157.603 165.046 163.79 158.929 163.79 151.282Z" stroke="black" stroke-width="2" stroke-miterlimit="10"/>
<path d="M149.866 171.738C149.284 171.738 148.704 172.313 148.704 172.885V175.371C136.327 174.796 126.271 164.857 125.691 152.619H128.205C128.785 152.619 129.364 152.046 129.364 151.474C129.364 150.899 128.785 150.135 128.205 150.135H125.691C126.271 137.898 136.327 127.956 148.704 127.383V129.869C148.704 130.444 149.284 131.017 149.866 131.017C150.448 131.017 151.027 130.444 151.027 129.869V127.383C163.402 127.956 173.461 137.898 174.04 150.135H171.526C170.947 150.135 170.367 150.708 170.367 151.281C170.367 151.856 170.947 152.431 171.526 152.431H174.04C173.461 164.663 163.402 174.606 151.027 175.181V172.694C151.027 172.122 150.448 171.738 149.866 171.738ZM197.053 151.281C197.053 150.708 196.474 150.135 195.894 150.135H189.511C188.932 129.487 172.106 112.855 151.22 112.28V105.971C151.22 105.396 150.641 104.824 150.059 104.824C149.479 104.824 148.897 105.396 148.897 105.971V112.28C128.012 112.855 111.184 129.487 110.607 150.135H104.224C103.644 150.135 103.062 150.708 103.062 151.281C103.062 151.856 103.644 152.431 104.224 152.431H110.607C111.184 173.076 128.012 189.711 148.897 190.284V196.592C148.897 197.167 149.479 197.74 150.059 197.74C150.641 197.74 151.22 197.167 151.22 196.592V190.284C172.106 189.711 188.932 173.076 189.511 152.431H195.894C196.474 152.619 197.053 152.046 197.053 151.281Z" stroke="black" stroke-width="2" stroke-miterlimit="10"/>
<path d="M108.865 183.592C105.576 183.592 102.869 186.269 102.869 189.518C102.869 192.768 105.576 195.445 108.865 195.445C112.152 195.445 114.862 192.768 114.862 189.518C114.862 186.269 112.152 183.592 108.865 183.592Z" stroke="black" stroke-width="2" stroke-miterlimit="10"/>
<path d="M191.06 119.162C195.702 119.162 199.571 115.338 199.571 110.75C199.571 106.164 195.702 102.339 191.06 102.339C186.418 102.339 182.549 106.164 182.549 110.75C182.549 115.338 186.225 119.162 191.06 119.162Z" stroke="black" stroke-width="2" stroke-miterlimit="10"/>
<path d="M120.855 101C122.245 101 123.369 102.113 123.369 103.486C123.369 104.857 122.245 105.97 120.855 105.97C119.468 105.97 118.341 104.857 118.341 103.486C118.341 102.113 119.468 101 120.855 101Z" stroke="black" stroke-width="2" stroke-miterlimit="10"/>
<path d="M106.351 117.825C107.738 117.825 108.865 118.937 108.865 120.308C108.865 121.684 107.738 122.795 106.351 122.795C104.961 122.795 103.837 121.684 103.837 120.308C103.837 118.937 104.961 117.825 106.351 117.825Z" stroke="black" stroke-width="2" stroke-miterlimit="10"/>
<path d="M101.516 165.62C102.904 165.62 104.03 166.733 104.03 168.107C104.03 169.48 102.904 170.593 101.516 170.593C100.127 170.593 99 169.48 99 168.107C99 166.733 100.127 165.62 101.516 165.62Z" stroke="black" stroke-width="2" stroke-miterlimit="10"/>
<path d="M130.526 194.299C131.913 194.299 133.04 195.412 133.04 196.783C133.04 198.156 131.913 199.269 130.526 199.269C129.136 199.269 128.012 198.156 128.012 196.783C128.012 195.412 129.136 194.299 130.526 194.299Z" stroke="black" stroke-width="2" stroke-miterlimit="10"/>
<path d="M171.72 191.812C173.109 191.812 174.236 192.927 174.236 194.298C174.236 195.672 173.109 196.784 171.72 196.784C170.332 196.784 169.206 195.672 169.206 194.298C169.206 192.927 170.332 191.812 171.72 191.812Z" stroke="black" stroke-width="2" stroke-miterlimit="10"/>
<path d="M198.217 172.694C199.604 172.694 200.731 173.806 200.731 175.18C200.731 176.553 199.604 177.666 198.217 177.666C196.827 177.666 195.701 176.553 195.701 175.18C195.701 173.806 196.827 172.694 198.217 172.694Z" stroke="black" stroke-width="2" stroke-miterlimit="10"/>
<path d="M198.217 127.384C199.604 127.384 200.731 128.496 200.731 129.867C200.731 131.243 199.604 132.356 198.217 132.356C196.827 132.356 195.701 131.243 195.701 129.867C195.701 128.496 196.827 127.384 198.217 127.384Z" stroke="black" stroke-width="2" stroke-miterlimit="10"/>
<path d="M169.206 101C170.594 101 171.721 102.113 171.721 103.486C171.721 104.857 170.594 105.97 169.206 105.97C167.817 105.97 166.692 104.857 166.692 103.486C166.692 102.113 167.817 101 169.206 101Z" stroke="black" stroke-width="2" stroke-miterlimit="10"/>
</svg>
